{"title":"Coraline[2009]DvDrip-LW","uid":4927510,"size":730747081,"categoryP":"video","categoryS":"movies","magnet":"?xt=urn:btih:9774732404e19842085673eeb3801a094b9b25c2&amp;dn=Coraline%5B2009%5DDvDrip-LW&amp;tr=udp%3A%2F%2Ftracker.openbittorrent.com%3A80&amp;tr=udp%3A%2F%2Fopen.demonii.com%3A1337&amp;tr=udp%3A%2F%2Ftracker.coppersurfer.tk%3A6969&amp;tr=udp%3A%2F%2Fexodus.desync.com%3A6969","seeders":0,"leechers":0,"uploader":"XoLWoX","files":-1,"time":1243900421,"description":"-------------------------------------------------\nF I L E - I N F O\n-------------------------------------------------\nTITLE......[ Coraline\nYEAR.......[ 2009\nGENRE......[ Drama / Animation\nRUNTIME....[ 01:40:32\nSTORE DATE.[ 2009 (USA)\nIMDB RATE..[ 8.1/10 (10,902 Votes)\nIMDB URL...[ http://www.imdb.com/title/tt0327597/\n-------------------------------------------------\nFormat                           : AVI\nFormat/Info                      : Audio Video Interleave\nFile size                        : 697 MiB\nDuration                         : 1h 40mn\nOverall bit rate                 : 969 Kbps\nWriting application              : VirtualDubMod 1.5.10.2 (build 2540/release)\nWriting library                  : VirtualDubMod build 2540/release\nSOURCE                           : DVD\n-------------------------------------------------\nV I D E O\n-------------------------------------------------\nFormat                           : MPEG-4 Visual\nFormat profile                   : Streaming Video@L1\nFormat settings, BVOP            : Yes\nFormat settings, QPel            : No\nFormat settings, GMC             : No warppoints\nFormat settings, Matrix          : Default (H.263)\nCodec ID                         : XVID\nCodec ID/Hint                    : XviD\nDuration                         : 1h 40mn\nBit rate                         : 829 Kbps\nWidth                            : 640 pixels\nHeight                           : 336 pixels\nDisplay aspect ratio             : 1.905\nFrame rate                       : 23.976 fps\nResolution                       : 24 bits\nColorimetry                      : 4:2:0\nScan type                        : Progressive\nBits/(Pixel*Frame)               : 0.161\nStream size                      : 596 MiB (86%)\nWriting library                  : XviD 1.2.1.\n-------------------------------------------------\nA U D I O\n-------------------------------------------------\nFormat                           : MPEG Audio\nFormat version                   : Version 1\nFormat profile                   : Layer 3\nCodec ID                         : 55\nCodec ID/Hint                    : MP3\nDuration                         : 1h 40mn\nBit rate mode                    : Variable\nBit rate                         : 127 Kbps\nNominal bit rate                 : 128 Kbps\nChannel(s)                       : 2 channels\nSampling rate                    : 48.0 KHz\nResolution                       : 16 bits\nStream size                      : 91.5 MiB (13%)\nAlignment                        : Aligned on interleaves\nInterleave, duration             : 24 ms (0.58 video frame)\nInterleave, preload duration     : 144 ms\nWriting library                  : LAME3.90.\nEncoding settings                : ABR\n-------------------------------------------------\nP L O T\n-------------------------------------------------\nCurious young Coraline (voiced by Dakota Fanning) \nunlocks a mysterious door in her family's new home \nand is transported to an alternate universe that \nstrangely resembles her own -- only better. But \nwhen her Other Mother (Teri Hatcher) doesn't \nwant Coraline to return to reality, our heroine \nmust summon all her courage and ingenuity to go home \nand save her family. The breathtaking stop-motion \nanimation is based on the best-seller by Neil Gaiman. \n\nStarring: Dakota Fanning, Ian McShane\n\nDirector: Henry Selick\n-------------------------------------------------","torrent":{"xt":"urn:btih:9774732404e19842085673eeb3801a094b9b25c2","amp;dn":"Coraline%5B2009%5DDvDrip-LW","amp;tr":["udp%3A%2F%2Ftracker.openbittorrent.com%3A80","udp%3A%2F%2Fopen.demonii.com%3A1337","udp%3A%2F%2Ftracker.coppersurfer.tk%3A6969","udp%3A%2F%2Fexodus.desync.com%3A6969"],"infoHash":"9774732404e19842085673eeb3801a094b9b25c2","infoHashBuffer":{"type":"Buffer","data":[151,116,115,36,4,225,152,66,8,86,115,238,179,128,26,9,75,155,37,194]},"announce":[],"urlList":[]}}